<svg xmlns="http://www.w3.org/2000/svg" xmlns:xlink="http://www.w3.org/1999/xlink" version="1.1" x="0px" y="0px" viewBox="0 0 100 125" enable-background="new 0 0 100 100" xml:space="preserve"><g><path fill="#000000" d="M42.506,29.998c1.928,0,3.492,1.596,3.492,3.563v2.313c0-2.141,1.787-3.877,3.994-3.877   c2.205,0,3.994,1.736,3.994,3.877v2.998c0-2.143,1.795-3.879,4.01-3.879s4.01,1.736,4.01,3.879v2.062   c0.006-1.627,1.342-2.945,2.99-2.945c1.65,0,2.99,1.322,2.99,2.955c0,0,0.018,5.771,0.018,12.059   c0,6.289-6.105,12.816-6.105,16.998c-5.189,0-16.437,0-19.96,0c0-3.746-9.939-11.148-9.939-15.568   c0-0.053-0.002-13.557-0.002-13.557c0-2.146,1.789-3.889,3.998-3.891v7.824c0,0.66,0.676,1.197,1.51,1.197s1.51-0.537,1.51-1.197   V33.562C39.014,31.594,40.579,29.998,42.506,29.998 M42.506,26.998c-3.58,0-6.492,2.944-6.492,6.563v0.425h-0.021   c-3.857,0.003-6.997,3.095-6.997,6.891l0.003,13.557c0,3.42,2.919,6.789,6.009,10.356c1.391,1.604,3.707,4.279,3.93,5.274v2.938h3   h19.96h3v-3c0-1.14,1.193-3.418,2.246-5.429c1.809-3.453,3.859-7.367,3.859-11.569c0-6.292-0.018-12.067-0.018-12.067   c0-3.274-2.688-5.946-5.99-5.946c-0.391,0-0.771,0.037-1.143,0.108c-1.254-1.868-3.412-3.104-5.857-3.104   c-0.709,0-1.393,0.104-2.037,0.296c-1.23-1.973-3.445-3.292-5.966-3.292c-0.859,0-1.684,0.153-2.445,0.434   C46.357,27.947,44.54,26.998,42.506,26.998L42.506,26.998z"/></g></svg>